# xmcd
#
# Track frame offsets: 
#        172
#        21550
#        42487
#        64430
#        88570
#        106185
#        131417
#        147050
#        172580
#        190792
#        206750
#
# Disc length: 3090 seconds
#
# Revision: 2
# Processed by: cddbd v1.5.2PL0 Copyright (c) Steve Scherf et al.
# Submitted via: ExactAudioCopyFreeDBPlugin 1.0
#
DISCID=960c100b
DTITLE=BB King - King of the blues - 1989
DYEAR=1988
DGENRE=Blues
TTITLE0=(You've Become a) Habit to Me
TTITLE1=Drowning In The Sea Of Love
TTITLE2=Can't Get Enough
TTITLE3=Standing on The Edge of Love
TTITLE4=Go On
TTITLE5=Let's Straighten It Out
TTITLE6=Change In Your Lovin'
TTITLE7=Undercover Man
TTITLE8=Lay Another Log On The Fire
TTITLE9=Business With My Baby Tonight
TTITLE10=Take Off Your Shoes
EXTD=YEAR: 1989
EXTT0=
EXTT1=
EXTT2=
EXTT3=
EXTT4=
EXTT5=
EXTT6=
EXTT7=
EXTT8=
EXTT9=
EXTT10=
PLAYORDER=
